<svg width="40" height="41" viewBox="0 0 40 41" fill="none" xmlns="http://www.w3.org/2000/svg">
    <circle cx="20" cy="20.0825" r="20" fill="#27F19A"/>
    <path fill-rule="evenodd" clip-rule="evenodd" d="M16.8388 11.0825C16.8388 10.6683 16.5031 10.3325 16.0888 10.3325C15.6746 10.3325 15.3388 10.6683 15.3388 11.0825V12.7328H14C13.5858 12.7328 13.25 13.0685 13.25 13.4828V26.6823C13.25 27.0965 13.5858 27.4323 14 27.4323H15.3388V29.0825C15.3388 29.4967 15.6746 29.8325 16.0888 29.8325C16.5031 29.8325 16.8388 29.4967 16.8388 29.0825V27.4323H18.1756C18.5898 27.4323 18.9256 27.0965 18.9256 26.6823V13.4828C18.9256 13.0685 18.5898 12.7328 18.1756 12.7328H16.8388V11.0825ZM17.4256 25.9323H16.0888H14.75V14.2328H17.4256V25.9323ZM21.8244 16.6498C21.4102 16.6498 21.0744 16.9855 21.0744 17.3998V23.2739C21.0744 23.6881 21.4102 24.0239 21.8244 24.0239H23.1622V25.6741C23.1622 26.0884 23.498 26.4241 23.9122 26.4241C24.3264 26.4241 24.6622 26.0884 24.6622 25.6741V24.0239H26C26.4142 24.0239 26.75 23.6881 26.75 23.2739V17.3998C26.75 16.9855 26.4142 16.6498 26 16.6498H24.6622V14.7921C24.6622 14.3779 24.3264 14.0421 23.9122 14.0421C23.498 14.0421 23.1622 14.3779 23.1622 14.7921V16.6498H21.8244ZM22.5744 18.1498H23.9122H25.25V22.5239H22.5744V18.1498Z" fill="#050505" fill-opacity="0.92"/>
</svg>