<svg width="24" height="24" viewBox="0 0 24 24" fill="none" xmlns="http://www.w3.org/2000/svg">
    <path d="M4.625 19L19.6261 5" stroke="#0C0E12" stroke-opacity="0.76" stroke-width="1.5" stroke-linecap="round" stroke-linejoin="round"/>
    <path d="M9.60156 17.4832C10.3784 17.719 11.1879 17.837 12.0017 17.8332C15.282 17.8877 18.6102 15.6477 20.6584 13.4466C20.8793 13.2103 21.0017 12.9025 21.0017 12.5832C21.0017 12.264 20.8793 11.9561 20.6584 11.7199C19.9178 10.9241 19.0947 10.2048 18.2022 9.57324" stroke="#0C0E12" stroke-opacity="0.76" stroke-width="1.5" stroke-linecap="round" stroke-linejoin="round"/>
    <path d="M16.0723 8.3208C14.8133 7.68581 13.4183 7.34745 12 7.33302C8.79977 7.27858 5.43952 9.47191 3.34337 11.7197C3.12243 11.9559 3 12.2637 3 12.583C3 12.9023 3.12243 13.2101 3.34337 13.4464C4.47936 14.6809 5.81089 15.7312 7.28766 16.5575" stroke="#0C0E12" stroke-opacity="0.76" stroke-width="1.5" stroke-linecap="round" stroke-linejoin="round"/>
    <path d="M9.60102 14.388C9.16701 13.8027 8.96501 13.0846 9.03218 12.366C9.09935 11.6474 9.43117 10.9766 9.96661 10.4769C10.502 9.97717 11.2051 9.68222 11.9464 9.64629C12.6877 9.61037 13.4174 9.83587 14.0013 10.2813" stroke="#0C0E12" stroke-opacity="0.76" stroke-width="1.5" stroke-linecap="round" stroke-linejoin="round"/>
    <path d="M15.0002 12.583C15.0002 12.966 14.9226 13.3453 14.7718 13.6992C14.6211 14.053 14.4001 14.3746 14.1215 14.6454C13.8429 14.9162 13.5121 15.1311 13.1481 15.2777C12.7841 15.4242 12.394 15.4997 12 15.4997" stroke="#0C0E12" stroke-opacity="0.76" stroke-width="1.5" stroke-linecap="round" stroke-linejoin="round"/>
</svg>