<svg width="40" height="41" viewBox="0 0 40 41" fill="none" xmlns="http://www.w3.org/2000/svg">
    <circle cx="20" cy="20.0825" r="20" fill="#27F19A"/>
    <path fill-rule="evenodd" clip-rule="evenodd" d="M11.8019 21.1819L26.9531 12.0004L18.8698 22.3187H12.1613C12.012 22.3187 11.8692 22.2715 11.7544 22.1876C11.64 22.104 11.5608 21.9898 11.5239 21.865C11.4871 21.7406 11.4929 21.6082 11.541 21.4865C11.5894 21.3644 11.6793 21.2562 11.8019 21.1819L11.4148 20.543L11.8019 21.1819ZM24.2474 28.3279L20.1856 23.0715L28.4453 12.5279L25.4338 28.076C25.4118 28.1893 25.3557 28.2971 25.2687 28.3851C25.1816 28.4733 25.0672 28.5375 24.9381 28.5667C24.809 28.5958 24.6738 28.5878 24.55 28.5442C24.4266 28.5006 24.3223 28.4244 24.2477 28.3283L24.2474 28.3279ZM26.7007 10.3994C27.0559 10.184 27.4659 10.0748 27.8809 10.0829C28.2961 10.0911 28.7016 10.2164 29.048 10.4459C29.3946 10.6756 29.668 11.0006 29.8313 11.3838C29.9945 11.767 30.0395 12.1893 29.9595 12.5983L29.9594 12.5992L26.9064 28.3616L26.9063 28.362C26.827 28.7703 26.6274 29.1442 26.3356 29.4395C26.0439 29.7346 25.6728 29.9385 25.2686 30.0298C24.8645 30.1211 24.4418 30.0966 24.0511 29.9587C23.6602 29.8208 23.3156 29.5745 23.0615 29.2463L23.061 29.2457L21.8495 27.6779L19.734 29.0757L19.7338 29.0758C19.4097 29.2901 19.0335 29.4133 18.6458 29.4345C18.258 29.4556 17.8705 29.374 17.5247 29.1968C17.1788 29.0196 16.8861 28.7526 16.6806 28.422C16.475 28.0912 16.3652 27.7102 16.3652 27.3203V27.3203V23.8187H12.1613C11.6977 23.8187 11.2443 23.6726 10.8696 23.3989C10.4946 23.1249 10.2176 22.7369 10.0855 22.2906C9.95337 21.844 9.97493 21.3674 10.1463 20.9344C10.3176 20.5018 10.6275 20.1397 11.0245 19.8991L26.7004 10.3995L26.7007 10.3994ZM17.8652 27.3203V23.8187H18.8672L20.9287 26.4885L18.907 27.8243L18.9068 27.8244C18.807 27.8904 18.6886 27.9299 18.5641 27.9367C18.4396 27.9435 18.3165 27.9171 18.2086 27.8618C18.1009 27.8066 18.0139 27.7256 17.9546 27.6302C17.8954 27.5349 17.8652 27.4279 17.8652 27.3204V27.3203Z" fill="#050505" fill-opacity="0.92"/>
</svg>