<svg width="24" height="24" viewBox="0 0 24 24" fill="none" xmlns="http://www.w3.org/2000/svg">
    <path d="M12 2C7.17502 2 3.25 5.55001 3.25 9.9167C3.25 14.7084 9.33336 20.1584 11.2 21.7084C11.4239 21.897 11.7073 22.0005 12 22.0005C12.2928 22.0005 12.5761 21.897 12.8 21.7084C14.6667 20.1501 20.7501 14.7084 20.7501 9.9167C20.7501 5.55001 16.8251 2 12 2ZM11.1667 6.37502C11.1667 6.154 11.2545 5.94204 11.4108 5.78576C11.5671 5.62948 11.779 5.54168 12 5.54168C12.221 5.54168 12.433 5.62948 12.5893 5.78576C12.7456 5.94204 12.8334 6.154 12.8334 6.37502V12.2084C12.8334 12.4294 12.7456 12.6414 12.5893 12.7976C12.433 12.9539 12.221 13.0417 12 13.0417C11.779 13.0417 11.5671 12.9539 11.4108 12.7976C11.2545 12.6414 11.1667 12.4294 11.1667 12.2084V6.37502ZM12 16.5751C11.7525 16.5751 11.5104 16.5015 11.3047 16.3638C11.099 16.2261 10.9388 16.0304 10.8444 15.8015C10.75 15.5726 10.7258 15.3208 10.7747 15.0781C10.8236 14.8354 10.9435 14.6127 11.1191 14.4382C11.2948 14.2637 11.5183 14.1453 11.7613 14.0981C12.0043 14.0508 12.2559 14.0767 12.4842 14.1726C12.7125 14.2685 12.9071 14.43 13.0434 14.6367C13.1798 14.8433 13.2517 15.0858 13.25 15.3334C13.2478 15.6635 13.1152 15.9793 12.881 16.2119C12.6468 16.4445 12.3301 16.5751 12 16.5751Z" fill="#FB2834"/>
</svg>