<svg width="24" height="24" viewBox="0 0 24 24" fill="none" xmlns="http://www.w3.org/2000/svg">
    <path d="M11.9988 6.50098C8.77396 6.44557 5.43872 8.74101 3.34189 11.0918C3.1218 11.3407 3 11.6638 3 11.9988C3 12.3337 3.1218 12.6568 3.34189 12.9057C5.39312 15.2068 8.71876 17.5552 11.9988 17.499C15.2788 17.5552 18.6053 15.2068 20.6581 12.9057C20.8782 12.6568 21 12.3337 21 11.9988C21 11.6638 20.8782 11.3407 20.6581 11.0918C18.5589 8.74101 15.2236 6.44557 11.9988 6.50098Z" stroke="#0C0E12" stroke-opacity="0.76" stroke-width="1.5" stroke-linecap="round" stroke-linejoin="round"/>
    <path d="M15.0001 12.0008C14.9999 12.6052 14.8238 13.1959 14.4941 13.6983C14.1643 14.2007 13.6957 14.5922 13.1475 14.8233C12.5993 15.0545 11.9962 15.1149 11.4143 14.9969C10.8324 14.8789 10.2979 14.5878 9.87841 14.1604C9.45893 13.7331 9.17328 13.1886 9.05759 12.5959C8.9419 12.0031 9.00135 11.3888 9.22844 10.8305C9.45553 10.2722 9.84005 9.79498 10.3334 9.45926C10.8267 9.12353 11.4067 8.94434 12 8.94434C12.3941 8.94423 12.7843 9.02322 13.1484 9.1768C13.5125 9.33037 13.8433 9.55552 14.1219 9.83938C14.4005 10.1232 14.6215 10.4602 14.7722 10.8311C14.9228 11.202 15.0003 11.5995 15.0001 12.0008Z" stroke="#0C0E12" stroke-opacity="0.76" stroke-width="1.5" stroke-linecap="round" stroke-linejoin="round"/>
</svg>