<svg width="40" height="41" viewBox="0 0 40 41" fill="none" xmlns="http://www.w3.org/2000/svg">
    <circle cx="20" cy="20.0825" r="20" fill="#27F19A"/>
    <path fill-rule="evenodd" clip-rule="evenodd" d="M13.8332 14.0825C13.7038 14.0825 13.5805 14.1337 13.4902 14.2236C13.3999 14.3134 13.3499 14.4345 13.3499 14.56V21.3112C13.3499 21.7254 13.0141 22.0612 12.5999 22.0612C12.1856 22.0612 11.8499 21.7254 11.8499 21.3112V14.56C11.8499 14.0344 12.0597 13.531 12.432 13.1604C12.8042 12.79 13.3083 12.5825 13.8332 12.5825H26.1662C26.691 12.5825 27.1951 12.79 27.5673 13.1604C27.9396 13.531 28.1495 14.0344 28.1495 14.56V21.3112C28.1495 21.7254 27.8137 22.0612 27.3995 22.0612C26.9852 22.0612 26.6495 21.7254 26.6495 21.3112V14.56C26.6495 14.4345 26.5994 14.3134 26.5092 14.2236C26.4188 14.1337 26.2955 14.0825 26.1662 14.0825H13.8332ZM10.2197 23.2359C10.3603 23.0952 10.5511 23.0162 10.75 23.0162H29.2495C29.6637 23.0162 29.9995 23.352 29.9995 23.7662C29.9995 24.7801 29.5948 25.7518 28.8755 26.4677C28.1564 27.1835 27.1818 27.5849 26.1663 27.5849H13.8333C12.8177 27.5849 11.8431 27.1835 11.124 26.4677C10.4047 25.7518 10 24.7801 10 23.7662C10 23.5673 10.079 23.3765 10.2197 23.2359ZM11.6254 24.5162C11.7393 24.8474 11.9284 25.152 12.1821 25.4046C12.6194 25.8398 13.2133 26.0849 13.8333 26.0849H26.1663C26.7862 26.0849 27.3801 25.8398 27.8174 25.4046C28.0712 25.152 28.2602 24.8474 28.3741 24.5162H11.6254ZM18.8996 16.4012C18.8996 15.987 18.5638 15.6512 18.1496 15.6512C17.7354 15.6512 17.3996 15.987 17.3996 16.4012V17.6287C17.3996 18.0429 17.7354 18.3787 18.1496 18.3787C18.5638 18.3787 18.8996 18.0429 18.8996 17.6287V16.4012ZM17.4199 19.5478C17.1131 19.2695 16.6388 19.2927 16.3605 19.5995C16.0823 19.9064 16.1054 20.3807 16.4123 20.6589C17.3937 21.5489 18.6729 22.0417 19.9993 22.0417C21.3258 22.0417 22.605 21.5489 23.5864 20.6589C23.8933 20.3807 23.9164 19.9064 23.6382 19.5995C23.3599 19.2927 22.8856 19.2695 22.5788 19.5478C21.874 20.1869 20.9541 20.5417 19.9993 20.5417C19.0446 20.5417 18.1247 20.1869 17.4199 19.5478ZM21.8496 15.6512C22.2638 15.6512 22.5996 15.987 22.5996 16.4012V17.6287C22.5996 18.0429 22.2638 18.3787 21.8496 18.3787C21.4354 18.3787 21.0996 18.0429 21.0996 17.6287V16.4012C21.0996 15.987 21.4354 15.6512 21.8496 15.6512Z" fill="#050505" fill-opacity="0.92"/>
</svg>