<svg width="24" height="24" viewBox="0 0 24 24" fill="none" xmlns="http://www.w3.org/2000/svg">
    <path d="M9.86719 9.86632C9.86727 9.47524 9.97484 9.09169 10.1782 8.75761C10.3815 8.42353 10.6727 8.15177 11.0201 7.97203C11.3674 7.7923 11.7575 7.7115 12.1476 7.73848C12.5378 7.76545 12.9131 7.89916 13.2324 8.12499C13.5517 8.35082 13.8028 8.66007 13.9581 9.01896C14.1136 9.37784 14.1673 9.77254 14.1136 10.1599C14.0598 10.5473 13.9007 10.9125 13.6534 11.2155C13.4062 11.5185 13.0803 11.7477 12.7116 11.878C12.5036 11.9516 12.3234 12.0879 12.1961 12.2681C12.0687 12.4483 12.0004 12.6636 12.0005 12.8843V13.5996" stroke="#0C0E12" stroke-opacity="0.76" stroke-width="1.5" stroke-linecap="round" stroke-linejoin="round"/>
    <path fill-rule="evenodd" clip-rule="evenodd" d="M12 17.0103V17.0171C12.5615 17.0171 13.0167 16.5619 13.0167 16.0005C13.0167 15.4457 12.5723 14.9946 12.02 14.984V14.9805C11.47 14.9805 11 15.4217 11 15.9955C11 16.5622 11.4586 16.9997 12 17.0103Z" fill="#0C0E12" fill-opacity="0.76"/>
    <path d="M12 20C16.4183 20 20 16.4183 20 12C20 7.58172 16.4183 4 12 4C7.58172 4 4 7.58172 4 12C4 16.4183 7.58172 20 12 20Z" stroke="#0C0E12" stroke-opacity="0.76" stroke-width="1.5" stroke-miterlimit="10"/>
</svg>