<svg width="20" height="20" viewBox="0 0 20 20" fill="none" xmlns="http://www.w3.org/2000/svg">
    <path fill-rule="evenodd" clip-rule="evenodd" d="M9.99789 3.875C9.3105 3.875 8.6559 4.13969 8.17693 4.60359C7.69877 5.06669 7.43475 5.68959 7.43475 6.33383V8.62584H12.561V6.33383C12.561 5.68959 12.297 5.06669 11.8189 4.60359C11.3399 4.13969 10.6853 3.875 9.99789 3.875ZM5.93475 6.33383V8.62584H5.73812C5.21532 8.62584 4.7915 9.03631 4.7915 9.54265V15.9603C4.7915 16.4666 5.21532 16.8771 5.73812 16.8771H14.2576C14.7804 16.8771 15.2042 16.4666 15.2042 15.9603V9.54265C15.2042 9.03631 14.7804 8.62584 14.2576 8.62584L14.061 8.62585V6.33383C14.061 5.276 13.6269 4.26654 12.8624 3.5261C12.0987 2.78645 11.0679 2.375 9.99789 2.375C8.92788 2.375 7.89706 2.78645 7.13337 3.5261C6.36886 4.26654 5.93475 5.276 5.93475 6.33383Z" fill="#050505" fill-opacity="0.44"/>
</svg>