<svg width="100" height="100" viewBox="0 0 100 100" fill="none" xmlns="http://www.w3.org/2000/svg">
    <g clip-path="url(#clip0_1246_9311)">
        <path d="M0 0V100H100V0H0ZM96.7938 96.7938H3.20439V3.20439H96.7903L96.7938 96.7938Z" fill="#0C0E12"/>
        <path d="M14.0283 57.5009L15.3955 53.8444H17.8771V65.989C17.163 66.1129 16.4662 66.3215 15.8014 66.6103V67.4221H23.159V66.6103C22.4939 66.3223 21.7972 66.1137 21.0833 65.989V53.8444H23.5649L24.9321 57.5009H25.8133C26.0942 55.8325 26.2513 54.1456 26.2833 52.454H12.6807C12.7127 54.1456 12.8698 55.8325 13.1506 57.5009H14.0283Z" fill="#0C0E12"/>
        <path d="M28.4156 66.0744C27.9248 66.1825 27.4507 66.3555 27.0056 66.5889V67.4221H32.6721V66.5889C32.3183 66.3403 31.9181 66.1653 31.4954 66.0744V60.1303C31.8372 59.1049 32.6721 58.1845 33.8096 58.1845C35.1786 58.1845 35.5418 59.2972 35.5418 61.7556V66.0744C35.1318 66.2005 34.7376 66.3731 34.3668 66.5889V67.4221H40.0333V66.5889C39.5975 66.3339 39.1192 66.1596 38.6216 66.0744V60.9652C38.6216 57.4368 37.3594 56.4737 35.0504 56.4737C33.4892 56.4737 32.0988 57.5864 31.5221 58.8913H31.5007V51.3414H30.7744C29.619 51.45 27.6732 51.7704 26.7974 52.1122V52.9454L28.4209 53.1234L28.4156 66.0744Z" fill="#0C0E12"/>
        <path d="M45.8048 67.6784C48.0514 67.6784 49.6127 66.6103 50.0773 65.6258L49.6714 65.1986C49.0929 65.6472 47.9607 65.9676 47.0189 65.9676C44.8168 65.9676 43.6828 64.515 43.6614 62.2684H50.2269C50.9746 57.9709 48.7083 56.4738 45.7568 56.4738C42.3583 56.4738 40.3467 58.4195 40.3467 62.0761C40.352 65.4763 42.2551 67.6784 45.8048 67.6784ZM45.6766 57.6932C46.9602 57.6932 47.3661 58.9394 47.1738 61.1575H43.7309C43.9018 58.391 44.5444 57.6932 45.6766 57.6932Z" fill="#0C0E12"/>
        <path d="M19.3294 72.1788C18.304 72.1788 16.23 72.3568 15.2669 72.3568H12.7871V73.1668C13.3399 73.454 13.9301 73.6625 14.5406 73.7863V85.8918C13.9242 85.9934 13.3306 86.2031 12.7871 86.5113V87.3249H15.1317C16.2229 87.3249 18.1473 87.5171 18.895 87.5171C24.5401 87.5171 27.2353 84.3733 27.2353 79.6468C27.2371 74.81 24.2695 72.1788 19.3294 72.1788ZM19.1158 86.1214C18.6154 86.1261 18.1152 86.0976 17.6186 86.036V73.6546C18.0905 73.5901 18.5666 73.5615 19.0428 73.5691C22.3575 73.5691 23.7052 76.5421 23.7052 79.6628C23.7141 83.1912 22.4092 86.1214 19.1158 86.1214Z" fill="#0C0E12"/>
        <path d="M34.1676 76.3712C30.7691 76.3712 28.7593 78.317 28.7593 81.9736C28.7593 85.3738 30.6623 87.5759 34.2121 87.5759C36.4569 87.5759 38.0182 86.5078 38.4846 85.5233L38.0823 85.0943C37.5037 85.5447 36.3715 85.8651 35.4297 85.8651C33.2276 85.8651 32.0936 84.4107 32.0723 82.1658H38.6306C39.3854 77.8666 37.1192 76.3712 34.1676 76.3712ZM35.5793 81.0532H32.1381C32.3072 78.2956 32.9499 77.5889 34.0821 77.5889C35.3657 77.5889 35.7715 78.8297 35.5793 81.0532Z" fill="#0C0E12"/>
        <path d="M41.6942 85.9719C41.1973 86.0592 40.7195 86.2327 40.2825 86.4846V87.3195H46.3975V86.4846C45.8884 86.225 45.3398 86.0518 44.774 85.9719V77.9734H48.6655V85.9701C48.2081 86.0772 47.7686 86.2499 47.3606 86.4828V87.3178H53.1552V86.4828C52.7108 86.247 52.2356 86.0745 51.7435 85.9701V76.3712H51.0172C50.0558 76.478 47.7665 76.6276 46.8265 76.6276H44.774V75.5594C44.774 72.866 46.3334 72.3746 47.8092 72.3746L49.3918 74.413H51.1881C51.5456 73.7038 51.7701 72.9351 51.8503 72.145C51.0599 71.6964 48.6655 71.2549 47.1683 71.2549C44.5585 71.2549 41.6942 72.145 41.6942 75.7054V76.4549C41.1175 76.603 40.5687 76.8435 40.0688 77.167V77.9734H41.6942V85.9719Z" fill="#0C0E12"/>
        <path d="M57.5809 87.5759C59.3611 87.5759 60.4452 86.4632 60.723 85.3506H60.8315C60.8511 86.2923 60.8725 86.8691 61.152 87.5332H61.8783C62.8201 87.4263 64.5718 87.0845 65.2785 86.7196V85.9719L63.8027 85.7583C63.7471 85.247 63.7257 84.7325 63.7386 84.2184C63.7386 82.764 63.8455 81.4822 63.8455 79.7679C63.8455 77.8844 63.0978 76.3676 59.8685 76.3676C57.9654 76.3676 56.1478 76.8163 55.0619 77.5639C55.1974 78.5581 55.54 79.5127 56.0677 80.366H57.0076L58.0081 77.7954C58.3961 77.645 58.8098 77.5724 59.2258 77.5817C60.6589 77.5817 61.006 78.673 60.7657 81.1315C56.1051 81.3665 54.2661 82.0519 54.2661 84.5958C54.2661 86.3992 55.7206 87.5759 57.5809 87.5759ZM60.7657 82.1444V84.2807C60.5877 84.8575 60.1462 85.8633 58.9267 85.8633C58.0081 85.8633 57.4741 85.2438 57.4741 84.1525C57.4741 82.7212 58.0936 82.2085 60.7657 82.1444Z" fill="#0C0E12"/>
        <path d="M71.7568 86.4846C71.3985 86.2444 70.9999 86.0707 70.58 85.9719V80.0278C70.9859 78.8297 71.7781 78.082 72.8676 78.082C74.1725 78.082 74.6211 79.1501 74.6211 80.9464V85.9719C74.2159 86.1099 73.8229 86.2814 73.4462 86.4846V87.3195H79.1126V86.4846C78.6795 86.2242 78.2001 86.0501 77.7009 85.9719V80.8609C77.7009 77.3325 76.3533 76.3712 74.1298 76.3712C73.3934 76.3659 72.6706 76.5701 72.0459 76.96C71.4211 77.3499 70.9201 77.9094 70.6014 78.5733H70.58V76.3712H69.8537C68.6343 76.478 66.8167 76.7985 66.0903 77.1403V77.9734L67.5003 78.1514V85.9844C67.0123 86.101 66.5392 86.273 66.0903 86.4971V87.332H71.7568V86.4846Z" fill="#0C0E12"/>
        <path d="M81.2489 84.4961C81.2489 86.6555 82.1479 87.5759 84.0082 87.5759C85.6104 87.5759 87.1503 86.8264 87.6648 86.3137L87.5152 85.6016C86.9479 85.779 86.3561 85.8655 85.7617 85.858C84.7345 85.858 84.3286 85.2794 84.3286 83.5063V77.9734H87.1503V76.6258H84.3286V73.9109H83.6005C83.0451 74.0178 81.5907 74.34 81.2489 74.6818V76.4139C80.6429 76.5615 80.0651 76.8068 79.5381 77.1403V77.9734H81.2489V84.4961Z" fill="#0C0E12"/>
    </g>
    <defs>
        <clipPath id="clip0_1246_9311">
            <rect width="100" height="100" fill="white"/>
        </clipPath>
    </defs>
</svg>